<svg xmlns="http://www.w3.org/2000/svg" width="97.218" height="93.045" viewBox="0 0 97.218 93.045">
  <g id="组_5" data-name="组 5" transform="translate(-3500 161)">
    <path id="减去_1" data-name="减去 1" d="M24.452,26.612h0a38.953,38.953,0,0,1-11.243-6.235A29.021,29.021,0,0,1,1.571,26.514L0,23.912a27.707,27.707,0,0,0,11.146-5.45A25.171,25.171,0,0,1,4.811,7.708H.54V4.763H11.686a20.225,20.225,0,0,0-2.6-3.683L12.029,0a24.042,24.042,0,0,1,2.8,4.713H25.483V7.66H21.211A28.731,28.731,0,0,1,15.27,18.266a38.831,38.831,0,0,0,10.8,5.793l-1.62,2.553ZM7.61,7.66a21.953,21.953,0,0,0,5.6,8.789,23.081,23.081,0,0,0,4.96-8.789Z" transform="translate(3560.11 -124.249)" fill="#fff"/>
    <path id="减去_2" data-name="减去 2" d="M89.558,93.045H39.771l2.8-12.619H7.66A7.669,7.669,0,0,1,0,72.766V7.66A7.669,7.669,0,0,1,7.66,0h38.3l2.357,12.619H89.558a7.669,7.669,0,0,1,7.66,7.66V85.385A7.669,7.669,0,0,1,89.558,93.045ZM46.5,80.377h0l-1.915,8.788H89.559a3.834,3.834,0,0,0,3.829-3.829h.049V20.278a3.834,3.834,0,0,0-3.83-3.83H49.395l3,16.694-.1-.05.344,1.817.049-.246,8.2,45.713H46.5ZM29.73,33.629V48.211h3.191V39.423a3.944,3.944,0,0,1,1.179-2.7,2.981,2.981,0,0,1,2.062-.834c2.213,0,3.289,1.172,3.289,3.584v8.691h3.191V39.177a6.081,6.081,0,0,0-1.381-4.547,5.394,5.394,0,0,0-4.02-1.394,4.926,4.926,0,0,0-2.406.54,5.776,5.776,0,0,0-1.915,1.571V33.629ZM11.906,28.08V48.211H26.882v-2.8H15.2V39.275H25.753v-2.8H15.2v-5.6H26.44v-2.8Z" transform="translate(3500 -161)" fill="#fff"/>
  </g>
</svg>
