<svg xmlns="http://www.w3.org/2000/svg" width="97.218" height="93.045" viewBox="0 0 97.218 93.045">
  <g id="组_4" data-name="组 4" transform="translate(-3381 161)">
    <g id="组_1" data-name="组 1" transform="translate(3373.877 -167.055)">
      <path id="路径_1" data-name="路径 1" d="M232.582,358.133a22.055,22.055,0,0,0,5.6,8.789,23.044,23.044,0,0,0,4.959-8.789H232.582Z" transform="translate(-204.739 -319.721)" fill="#fff"/>
      <path id="路径_2" data-name="路径 2" d="M96.681,18.674H55.437L53.081,6.055h-38.3a7.67,7.67,0,0,0-7.66,7.66V78.821a7.669,7.669,0,0,0,7.66,7.66h34.91L46.894,99.1H96.681a7.669,7.669,0,0,0,7.66-7.66V26.333a7.669,7.669,0,0,0-7.66-7.66Zm-52,38.691a38.813,38.813,0,0,1-11.244-6.236A29.044,29.044,0,0,1,21.8,57.266l-1.571-2.6a27.879,27.879,0,0,0,11.146-5.45,25.045,25.045,0,0,1-6.334-10.753H20.773V35.515H31.919a20.15,20.15,0,0,0-2.6-3.683l2.946-1.08a23.908,23.908,0,0,1,2.8,4.714H45.716v2.946H41.444A28.553,28.553,0,0,1,35.5,49.018a38.7,38.7,0,0,0,10.8,5.794l-1.62,2.553Zm55.827,34.026a3.835,3.835,0,0,1-3.83,3.83H51.706l1.915-8.789H68.007l-8.2-45.712-.049.245-.344-1.817.1.049-3-16.694H96.731a3.835,3.835,0,0,1,3.83,3.83V91.391Z" fill="#fff"/>
      <path id="路径_3" data-name="路径 3" d="M652.061,430.768h10.557v-2.8H652.061v-5.6H663.3v-2.8H648.771V439.7h14.976v-2.8H652.061v-6.138Zm22.046-6.039a4.954,4.954,0,0,0-2.406.54,5.758,5.758,0,0,0-1.915,1.571v-1.718h-3.192V439.7h3.192v-8.789a3.954,3.954,0,0,1,1.178-2.7,2.98,2.98,0,0,1,2.062-.835c2.209,0,3.29,1.178,3.29,3.584v8.691h3.192V430.67C679.606,426.693,677.74,424.728,674.107,424.728Z" transform="translate(-582.679 -375.515)" fill="#fff"/>
    </g>
  </g>
</svg>
