<svg xmlns="http://www.w3.org/2000/svg" width="43.453" height="45.002" viewBox="0 0 43.453 45.002"><defs><style>.a,.b{fill:#0078ec;}.b{fill-rule:evenodd;}</style></defs><g transform="translate(17506 23806)"><path class="a" d="M33.234,38.081V44.12l2.352,2.139L38.16,43.9H34.947V42.071h3.148V40.219H34.947V38.235H38.2l-2.528-2.407Z" transform="translate(-17507.205 -23807.297)"/><path class="a" d="M39.432,38.243v6.082l2.112,1.981,2.485-2.4V42l-1.717-.011,0,1.961H41.038V38.418l1.3.011.01,1.974,1.685.008V38.243l-2.353-2.2Z" transform="translate(-17507.43 -23807.305)"/><path class="b" d="M11.3,45.118h1.741l.032-40.786a4.14,4.14,0,0,0-1.758.843Z" transform="translate(-17506.412 -23806.158)"/><path class="b" d="M18.541,2.035a6.958,6.958,0,0,0-.872.252l0,17.7L15.923,2.764a8.155,8.155,0,0,0-1.728.924l0,41.339h1.8V27.979l1.671,17.049h1.7l-.02-43.153s-.4.081-.8.161" transform="translate(-17506.514 -23806.068)"/><path class="b" d="M8.133,24.773A12.625,12.625,0,0,0,3.447,28.5,11.655,11.655,0,0,0,.969,34.022C.891,35.479,1.1,36.7,2.03,37.391a29.08,29.08,0,0,1,3.083,2.042,2.277,2.277,0,0,1,.407,2.892,2.084,2.084,0,0,1-1.448.82,4.466,4.466,0,0,1-.989-.139L0,45.841H6.892a5.012,5.012,0,0,0,2.063-3.463,5.45,5.45,0,0,0-3.15-4.891c-.938-.538-1.672-.318-2.229-1.091-.687-.953-.477-3.487-.013-4.677a14.578,14.578,0,0,1,3.425-5.1,8.73,8.73,0,0,1,2.828-2.21s.2-.358-1.684.365" transform="translate(-17506 -23806.881)"/><path class="b" d="M20.871,22.891a1.172,1.172,0,0,1,.244-.539,2.172,2.172,0,0,1,.683-.582c.21-.084.367-.145.384-.007a3.428,3.428,0,0,1,0,.435,1.743,1.743,0,0,1-.284.414c-.126.1-.349.222-.363.346a.315.315,0,0,0,.138.332.668.668,0,0,0,.378-.04s-.041.951-.029,1.394.029,1.16.014,1.369a5.381,5.381,0,0,0-.014.828c.031.159.112.192.225.192s.223-.109.208-.427a8.656,8.656,0,0,1-.013-1.34,2.689,2.689,0,0,0,.054-.855c-.026-.249-.111-.553-.04-.691s0-.29,0-.387-.028-.249.14-.318.112-.055.474-.084.416-.111.389-.277-.279-.317-.279-.455.209-.3.306-.386a.657.657,0,0,1,.39-.206c.181-.013.224,0,.252-.1a.5.5,0,0,1,.153-.221.443.443,0,0,0,.124-.373c-.027-.166-.055-.262-.388-.3a2,2,0,0,0-.726.015c-.293.04-.446.148-.543.094s-.1-.165-.1-.29a3.953,3.953,0,0,1-.013-.4,2.073,2.073,0,0,1,.055-.439c.057-.182,0-.224,0-.414s.084-.334.04-.43-.192-.249-.333-.068a.61.61,0,0,0-.181.512c-.013.331.043,1.337.015,1.518s-.029.221-.167.3a1.558,1.558,0,0,0-.392.262c-.1.111-.237.111-.319.192s-.168.249-.211.126a.982.982,0,0,1,0-.344c0-.124-.132-.124-.132-.124s-.349,0-.525.519a3.843,3.843,0,0,0-.157.692c-.051.157-.192.226-.14.349s.227.45.367.5.282.021.316-.293m1.652-1.342c.042-.109.224-.1.334-.068s.125.125.014.168-.209.221-.209.221-.124.18-.169,0a.563.563,0,0,1,.029-.32" transform="translate(-17506.732 -23806.674)"/><path class="b" d="M34.864,22.915c.136,0,.512.04.61-.069s.3-.388.338-.443.224-.123.224.055.029.843.029.843a.971.971,0,0,1-.236.386c-.154.126-.071.195-.141.25s-.29.083-.238.221.027.219.516.109a.691.691,0,0,0,.6-.662c.015-.207-.04-.609-.04-.8a1.385,1.385,0,0,0-.042-.483,1,1,0,0,0-.251-.386c-.056-.041-.1-.113-.013-.25a3.77,3.77,0,0,1,.293-.5c.1-.111.333-.209.4-.293a1.135,1.135,0,0,1,.153-.177c.07-.057.168-.111.124-.2s-.193-.11-.193-.11a.948.948,0,0,0-.488.25c-.128.136-.446.788-.628,1a4.906,4.906,0,0,1-.7.745c-.186.111-.362.042-.486.234s.03.279.164.279" transform="translate(-17507.258 -23806.738)"/><path class="b" d="M40.687,24.188a3.722,3.722,0,0,0,1.392-1.159c.151-.221.252-.207.336-.444s-.112-.316-.2-.58a2.406,2.406,0,0,1-.11-1.061c.053-.4-.072-.416-.17-.416s-.236.1-.167.527a1.72,1.72,0,0,1-.013.664,1.875,1.875,0,0,0,.04.827.615.615,0,0,1-.112.539,5.707,5.707,0,0,1-.807.623,1.352,1.352,0,0,1-.811.248,2.659,2.659,0,0,1-1.058-.108c-.321-.126-.094-.148-.347-.211-.056-.013-.28-.15-.28-.343a4.29,4.29,0,0,1,.042-.856c.057-.168.014-.262.264-.4a3.655,3.655,0,0,0,.629-.416c.181-.15.194-.235.306-.333a4.771,4.771,0,0,0,.461-.385c.109-.123.208-.22.055-.288a.606.606,0,0,0-.5-.029c-.209.069-.264.277-.446.4s-.249.249-.418.235-.153-.125-.153-.235-.1-.179-.18-.124a2.022,2.022,0,0,0-.334.194,1.574,1.574,0,0,0-.168.207.8.8,0,0,0,.03.275.432.432,0,0,1-.127.442c-.127.109-.334.141-.46.265s-.293.193-.042.261.375-.082.4.04c.036.157,0,1.3,0,1.3s-.112.246.236.4.1.136.461.136.473.03.836.057a2.412,2.412,0,0,0,1.409-.249" transform="translate(-17507.35 -23806.746)"/><path class="b" d="M24.475,24.078c.041.182-.02.587.121.577.375-.03.479-.465.52-.935a12.637,12.637,0,0,0,.026-1.617c-.026-.207.016-.316-.082-.373s-.2.1-.2.1a2.794,2.794,0,0,0-.126,1.08,1.031,1.031,0,0,1-.166.744.5.5,0,0,0-.1.427" transform="translate(-17506.885 -23806.789)"/><path class="b" d="M26.094,20.879c.139-.027.455-.2.67-.288a3.411,3.411,0,0,1,1-.042c.152.042.251.3.279.663a4.4,4.4,0,0,1,.055.745.927.927,0,0,0,.1.5,5.6,5.6,0,0,0,0,.815,1.634,1.634,0,0,1,.071.813c-.057.4-.279.484-.279.484s-.211-.1-.335.016,0,.234.069.26.083.247.11.347a.28.28,0,0,0,.351.081.648.648,0,0,0,.279-.345c.027-.153.237-.6.279-.786a4.7,4.7,0,0,1,.152-.512c.043-.11-.055-.205.043-.277s.068-.206-.014-.3,0-.235-.041-.387-.085-.635-.112-.868-.042-.9-.084-1.217-.125-.469-.266-.511-.5.03-.627-.043-.208-.024-.347-.052a.551.551,0,0,0-.446.052c-.28.142-.375.167-.709.349a3.5,3.5,0,0,1-.461.178c-.162.081-.252.221-.168.316s.293.042.433.014" transform="translate(-17506.926 -23806.725)"/><path class="b" d="M27.265,24.923c.114-.1.167-.026.222-.11a.5.5,0,0,0-.11-.5c-.142-.1-.323-.165-.461-.041s-.222.153-.279.057-.056-.126.014-.209a1.226,1.226,0,0,0,.237-.371c.028-.113.064-.192.166-.113.2.153.141.44.378.61s.32-.043.265-.153-.168-.151-.21-.3-.014-.219-.1-.276a.435.435,0,0,1-.156-.4.451.451,0,0,1,.142-.332,1.87,1.87,0,0,0,.291-.584c.013-.1-.167-.135-.236-.053a1.084,1.084,0,0,0-.184.306c-.041.109-.179.148-.206.013a1.2,1.2,0,0,1-.057-.542c.057-.135.14-.232.057-.274s-.21-.041-.251-.141a1.94,1.94,0,0,0-.252-.439c-.081-.083-.262.029-.222.14s.208.29.153.357a.276.276,0,0,1-.224.112h-.278a.493.493,0,0,0-.4.246c-.093.167-.139.276.057.276s.361.028.277.2-.25.2-.2.317.307.18.267.3a1.322,1.322,0,0,1-.321.43c-.068.041-.195.1-.238.205s-.194.292-.1.375.348.041.545-.1a3.729,3.729,0,0,1,.528-.3c.139-.068.279-.333.181-.359s-.181.026-.335.111-.237.041-.1-.138a2.282,2.282,0,0,0,.265-.358c.042-.1.209-.294.279-.3s.182.081.151.149-.264.141-.167.223.2-.028.224.1a1.766,1.766,0,0,1-.335.788,1.566,1.566,0,0,1-.432.414,2.393,2.393,0,0,0-.487.345c-.07.082.013.318.194.276a1.482,1.482,0,0,1,.586.027c.306.041.209-.013.391.083a.335.335,0,0,0,.46-.057M26.4,22.247c-.1-.055.083-.18.083-.18s.1.028.1.1a.114.114,0,0,1-.18.085" transform="translate(-17506.918 -23806.766)"/><path class="b" d="M27.065,20.984a.568.568,0,0,0,0,.177s.3.182.335.334c0,0,.235.122.221-.237a.341.341,0,0,0-.321-.373c-.194-.013-.222,0-.235.1" transform="translate(-17506.982 -23806.758)"/><path class="b" d="M31.237,20.916c.162.083.195.25.378.291a3.829,3.829,0,0,0,.849-.041,2.619,2.619,0,0,0,.682-.207c.182-.07.158-.205.266-.29.223-.18.166-.25.166-.386s-.222-.113-.473-.085a2.936,2.936,0,0,0-.529.124c-.112.026-.265-.028-.335.013s-.278,0-.389.013-.236.166-.333.209-.293,0-.4.083.124.276.124.276" transform="translate(-17507.131 -23806.73)"/><path class="b" d="M33.823,24.253c.083-.085-.027-.264-.182-.277s-.374.013-.374-.1A1.322,1.322,0,0,1,33.6,23.3a.951.951,0,0,0,.306-.522c0-.156-.141-.349-.265-.292a1.937,1.937,0,0,0-.347.179c-.07.054-.195.082-.362.179a.775.775,0,0,1-.361.165,4.1,4.1,0,0,0-.42.084c-.139.043-.209-.151-.376-.123s-.306.179-.432.066a.418.418,0,0,1-.069-.439,3.858,3.858,0,0,0,.223-.567c0-.139.027-.1.1-.22s.154-.333-.028-.318-.544.371-.544.371-.069.324-.152.636a7.888,7.888,0,0,1-.279.857,9.275,9.275,0,0,1-1.034,2.193,17.227,17.227,0,0,1-1.2,1.741c-.236.29-.333.471-.473.648s0,.349.14.264.321-.44.446-.5.235-.26.292-.358.279-.29.335-.374a3.6,3.6,0,0,1,.279-.482c.139-.179.251-.388.446-.678s.251-.593.4-.773a5.092,5.092,0,0,0,.391-.689A2.921,2.921,0,0,0,30.758,24l-.029.662a.464.464,0,0,0,.21.028.51.51,0,0,1,.32.055c.1.055.321-.195.418-.3A.3.3,0,0,0,31.7,24.1c-.056-.093-.152-.288-.041-.371s.251-.041.4-.083a1.089,1.089,0,0,1,.418-.04c.181.013.321,0,.223.235s-.4.345-.431.512,0,.368.32.358.306-.179.6-.223a1.3,1.3,0,0,0,.627-.231" transform="translate(-17507.012 -23806.781)"/><path class="b" d="M20.63,38.059v5.885l2.311,2.314L25.6,43.615v-5.6l-2.423-2.245Zm3.234,5.556H22.3V38.233h1.563Z" transform="translate(-17506.748 -23807.297)"/><path class="b" d="M26.928,38.059v8.2H28.6l0-2.014,1.585,1.508L31.9,44.228V38.014l-2.423-2.245Zm3.237,5.577H28.6l0-5.4H30.16Z" transform="translate(-17506.977 -23807.297)"/><path class="b" d="M5,31.642s1.429,2.275,2.391,3.517A12.232,12.232,0,0,0,10,37.742l-.009,2a27.094,27.094,0,0,1-3.6-3.362,30.058,30.058,0,0,1-2.079-2.894s.189-.739.321-1.074c.3-.751.365-.772.365-.772" transform="translate(-17506.158 -23807.148)"/><path class="b" d="M10.23,5.807A23.739,23.739,0,0,0,7.308,8.638a18.318,18.318,0,0,0-2.061,2.957,22.008,22.008,0,0,0-1.785,4.169,22.428,22.428,0,0,0-.754,3.73,21.7,21.7,0,0,0,0,3.551,18.664,18.664,0,0,0,.627,3.465,7.056,7.056,0,0,0-.529.622,7.279,7.279,0,0,0-.6.954,18.623,18.623,0,0,1-.837-3.123A23.612,23.612,0,0,1,1.065,21.2c.041-.924.116-2.352.251-3.148a31.654,31.654,0,0,1,1.422-4.915,34.969,34.969,0,0,1,2.021-3.7c.377-.525,2.034-2.611,2.564-3.122a25.24,25.24,0,0,1,4.252-3.3A22.565,22.565,0,0,1,17.411.643,20,20,0,0,1,22.288.007a21.965,21.965,0,0,1,6.524,1.009,21.223,21.223,0,0,1,6.02,3.065,25.093,25.093,0,0,1,4.877,4.958,26.794,26.794,0,0,1,2.4,4.489,21.885,21.885,0,0,1,1.285,5.233,24.577,24.577,0,0,1-.21,6.15,22.168,22.168,0,0,1-1.547,4.969,21.844,21.844,0,0,1-4.153,6.077l-1.17-1.035a20.339,20.339,0,0,0,3.568-5.069A18.849,18.849,0,0,0,41.689,24.4a22.067,22.067,0,0,0,0-6.38,19.983,19.983,0,0,0-2.537-6.963A20.411,20.411,0,0,0,30.26,3.211,19.684,19.684,0,0,0,21.9,1.581a12.943,12.943,0,0,0-3.009.332,16.179,16.179,0,0,0-4.775,1.542A18,18,0,0,0,10.23,5.807" transform="translate(-17506.039 -23806)"/></g></svg>