<svg xmlns="http://www.w3.org/2000/svg" width="35.198" height="36.452" viewBox="0 0 35.198 36.452"><defs><style>.a,.b{fill:#fff;}.b{fill-rule:evenodd;}</style></defs><g transform="translate(17506 23806)"><path class="a" d="M33.234,37.653v4.892l1.906,1.732,2.084-1.909h-2.6V40.885h2.55v-1.5h-2.55V37.777H37.26l-2.048-1.95Z" transform="translate(-17513.289 -23813.857)"/><path class="a" d="M39.432,37.824v4.927l1.71,1.605,2.013-1.941V40.87l-1.391-.009,0,1.589H40.733V37.966l1.05.009.008,1.6,1.365.006V37.824l-1.906-1.783Z" transform="translate(-17514.648 -23813.904)"/><path class="b" d="M11.3,37.369h1.41l.026-33.037a3.354,3.354,0,0,0-1.424.683Z" transform="translate(-17508.48 -23806.951)"/><path class="b" d="M17.716,2a5.636,5.636,0,0,0-.706.2l0,14.334L15.595,2.6a6.606,6.606,0,0,0-1.4.749l0,33.485h1.454V23.02l1.354,13.81h1.379L18.368,1.874s-.32.066-.652.13" transform="translate(-17509.113 -23806.412)"/><path class="b" d="M6.588,24.687a10.227,10.227,0,0,0-3.8,3.016A9.441,9.441,0,0,0,.785,32.179a2.991,2.991,0,0,0,.86,2.729,23.556,23.556,0,0,1,2.5,1.654A1.845,1.845,0,0,1,4.471,38.9a1.688,1.688,0,0,1-1.173.664,3.618,3.618,0,0,1-.8-.112L0,41.753H5.582a4.06,4.06,0,0,0,1.671-2.8A4.415,4.415,0,0,0,4.7,34.986c-.76-.436-1.354-.258-1.806-.884-.557-.772-.386-2.824-.01-3.789a11.809,11.809,0,0,1,2.774-4.133,7.072,7.072,0,0,1,2.29-1.79s.162-.29-1.364.3" transform="translate(-17506 -23811.334)"/><path class="b" d="M20.739,22.075a.949.949,0,0,1,.2-.436,1.759,1.759,0,0,1,.553-.472c.17-.068.3-.117.311-.005a2.777,2.777,0,0,1,0,.352,1.412,1.412,0,0,1-.23.336c-.1.08-.283.18-.294.28a.255.255,0,0,0,.112.269.541.541,0,0,0,.306-.033s-.034.771-.023,1.129.023.94.012,1.109a4.359,4.359,0,0,0-.012.671c.025.129.091.155.182.155s.18-.088.169-.346A7.011,7.011,0,0,1,22.01,24a2.178,2.178,0,0,0,.044-.692c-.021-.2-.09-.448-.033-.56s0-.235,0-.314-.023-.2.113-.258.091-.044.384-.068.337-.09.315-.224-.226-.257-.226-.368.169-.246.247-.313a.533.533,0,0,1,.316-.167c.147-.011.181,0,.2-.079a.4.4,0,0,1,.124-.179.359.359,0,0,0,.1-.3c-.022-.134-.045-.212-.315-.246a1.617,1.617,0,0,0-.588.012c-.237.032-.361.12-.44.077s-.08-.133-.08-.235a3.2,3.2,0,0,1-.011-.325,1.679,1.679,0,0,1,.044-.356c.046-.148,0-.181,0-.336s.068-.271.033-.348-.155-.2-.27-.055a.494.494,0,0,0-.147.415c-.011.268.035,1.083.012,1.23s-.023.179-.135.247a1.262,1.262,0,0,0-.318.212c-.078.09-.192.09-.258.155s-.136.2-.171.1a.8.8,0,0,1,0-.279c0-.1-.107-.1-.107-.1s-.283,0-.425.421a3.113,3.113,0,0,0-.127.561c-.041.127-.155.183-.113.283s.184.365.3.405.229.017.256-.237m1.338-1.087c.034-.088.181-.079.271-.055s.1.1.012.136-.169.179-.169.179-.1.146-.137,0a.456.456,0,0,1,.023-.259" transform="translate(-17510.426 -23810.078)"/><path class="b" d="M34.824,22.439c.11,0,.415.032.494-.056s.24-.315.274-.359.181-.1.181.044.023.683.023.683a.787.787,0,0,1-.191.313c-.125.1-.058.158-.114.2s-.235.067-.193.179.022.177.418.088A.56.56,0,0,0,36.2,23c.012-.168-.033-.493-.033-.649a1.122,1.122,0,0,0-.034-.391.811.811,0,0,0-.2-.313c-.045-.034-.08-.091-.011-.2a3.054,3.054,0,0,1,.237-.4c.078-.09.27-.169.326-.237a.92.92,0,0,1,.124-.144c.057-.046.136-.09.1-.159s-.156-.089-.156-.089a.768.768,0,0,0-.4.2c-.1.11-.361.639-.509.806a3.974,3.974,0,0,1-.564.6c-.151.09-.294.034-.393.19s.024.226.133.226" transform="translate(-17513.602 -23810.477)"/><path class="b" d="M40.027,23.493a3.015,3.015,0,0,0,1.127-.939c.123-.179.2-.168.272-.36s-.091-.256-.158-.47a1.949,1.949,0,0,1-.089-.86c.043-.326-.059-.337-.137-.337s-.191.08-.135.427a1.393,1.393,0,0,1-.01.538,1.519,1.519,0,0,0,.033.67.5.5,0,0,1-.091.436,4.623,4.623,0,0,1-.653.5,1.1,1.1,0,0,1-.657.2,2.154,2.154,0,0,1-.857-.087c-.26-.1-.077-.12-.281-.171-.045-.011-.227-.122-.227-.278a3.475,3.475,0,0,1,.034-.693c.046-.136.012-.212.214-.325a2.96,2.96,0,0,0,.51-.337c.147-.122.157-.19.247-.27a3.865,3.865,0,0,0,.373-.311c.088-.1.169-.178.045-.233a.491.491,0,0,0-.407-.023c-.169.056-.214.224-.361.325s-.2.2-.339.19-.124-.1-.124-.19-.079-.145-.146-.1a1.638,1.638,0,0,0-.271.157,1.275,1.275,0,0,0-.136.168.649.649,0,0,0,.024.222.35.35,0,0,1-.1.358c-.1.088-.271.114-.372.215s-.237.156-.034.212.3-.066.328.033c.029.127,0,1.054,0,1.054s-.091.2.191.322.08.11.373.11.383.024.677.046a1.954,1.954,0,0,0,1.141-.2" transform="translate(-17514.162 -23810.504)"/><path class="b" d="M24.473,23.63c.034.148-.016.475.1.468.3-.024.388-.377.422-.757a10.236,10.236,0,0,0,.021-1.31c-.021-.168.013-.256-.066-.3s-.158.078-.158.078a2.263,2.263,0,0,0-.1.875.835.835,0,0,1-.134.6.406.406,0,0,0-.08.346" transform="translate(-17511.363 -23810.766)"/><path class="b" d="M26.005,20.7c.112-.022.368-.165.543-.233a2.763,2.763,0,0,1,.812-.034c.123.034.2.246.226.537a3.566,3.566,0,0,1,.044.6.751.751,0,0,0,.079.4,4.536,4.536,0,0,0,0,.66,1.323,1.323,0,0,1,.058.659c-.046.325-.226.392-.226.392s-.171-.077-.272.013,0,.19.056.211.067.2.089.281a.227.227,0,0,0,.284.066.525.525,0,0,0,.226-.279c.022-.124.192-.489.226-.637a3.8,3.8,0,0,1,.123-.415c.035-.089-.044-.166.035-.224s.055-.167-.012-.246,0-.19-.034-.314-.069-.514-.091-.7-.034-.728-.068-.986-.1-.38-.215-.414-.406.024-.508-.035-.169-.02-.281-.042a.446.446,0,0,0-.361.042c-.227.115-.3.135-.575.283a2.837,2.837,0,0,1-.373.144c-.131.066-.2.179-.136.256s.237.034.351.012" transform="translate(-17511.619 -23810.375)"/><path class="b" d="M26.889,24.186c.092-.077.135-.021.18-.089a.4.4,0,0,0-.089-.4c-.115-.079-.262-.133-.373-.034s-.18.124-.226.046-.045-.1.012-.169a.993.993,0,0,0,.192-.3c.023-.091.052-.155.134-.091.158.124.114.357.306.494s.259-.035.215-.124-.136-.123-.17-.246-.012-.177-.077-.223a.353.353,0,0,1-.126-.324.365.365,0,0,1,.115-.269,1.515,1.515,0,0,0,.236-.473c.011-.077-.135-.109-.191-.043a.878.878,0,0,0-.149.247c-.034.088-.145.12-.167.011a.972.972,0,0,1-.046-.439c.046-.109.113-.188.046-.222s-.17-.034-.2-.114a1.571,1.571,0,0,0-.2-.356c-.066-.067-.212.023-.18.113s.169.235.124.289a.224.224,0,0,1-.181.091h-.225a.4.4,0,0,0-.328.2c-.075.135-.112.223.046.223s.293.023.224.159-.2.165-.158.257.249.146.216.245a1.071,1.071,0,0,1-.26.348c-.055.034-.158.08-.193.166s-.157.237-.078.3.282.034.441-.079a3.021,3.021,0,0,1,.428-.246c.112-.055.226-.27.147-.291s-.147.021-.272.09-.192.034-.078-.112a1.849,1.849,0,0,0,.215-.29c.034-.079.169-.238.226-.247s.148.066.123.121-.214.114-.135.18.16-.023.181.078a1.43,1.43,0,0,1-.272.639,1.269,1.269,0,0,1-.35.336,1.938,1.938,0,0,0-.394.279c-.057.066.011.258.157.223a1.2,1.2,0,0,1,.475.022c.248.034.169-.011.317.067a.271.271,0,0,0,.372-.046m-.7-2.168c-.079-.044.067-.146.067-.146s.079.023.079.077a.093.093,0,0,1-.146.069" transform="translate(-17511.547 -23810.617)"/><path class="b" d="M27.063,20.965a.461.461,0,0,0,0,.144s.24.148.272.271c0,0,.19.1.179-.192a.276.276,0,0,0-.26-.3c-.157-.01-.18,0-.19.08" transform="translate(-17511.936 -23810.58)"/><path class="b" d="M31.208,20.775c.131.067.158.2.306.236a3.1,3.1,0,0,0,.688-.034,2.121,2.121,0,0,0,.553-.168c.148-.057.128-.166.215-.235.18-.146.134-.2.134-.312s-.18-.091-.383-.069a2.378,2.378,0,0,0-.429.1c-.091.021-.215-.023-.272.01s-.225,0-.315.011-.191.134-.27.169-.237,0-.328.067.1.223.1.223" transform="translate(-17512.82 -23810.424)"/><path class="b" d="M32.685,23.728c.067-.069-.022-.214-.148-.224s-.3.01-.3-.078a1.071,1.071,0,0,1,.269-.472.771.771,0,0,0,.248-.423c0-.126-.114-.283-.215-.237a1.569,1.569,0,0,0-.281.145c-.057.044-.158.066-.294.145a.627.627,0,0,1-.293.133,3.324,3.324,0,0,0-.34.068c-.112.035-.169-.123-.3-.1s-.248.145-.35.054a.338.338,0,0,1-.056-.356,3.125,3.125,0,0,0,.18-.459c0-.112.022-.077.079-.178s.125-.27-.023-.258-.44.3-.44.3-.056.262-.123.515a6.39,6.39,0,0,1-.226.694,7.513,7.513,0,0,1-.838,1.777,13.955,13.955,0,0,1-.97,1.411c-.191.235-.27.382-.383.525s0,.283.113.214.26-.357.361-.4.19-.211.237-.29.226-.235.272-.3a2.913,2.913,0,0,1,.226-.39c.112-.145.2-.315.361-.55s.2-.48.327-.626a4.125,4.125,0,0,0,.317-.558,2.365,2.365,0,0,0,.112-.28l-.023.536a.376.376,0,0,0,.17.023.413.413,0,0,1,.259.044c.079.044.26-.158.339-.246a.24.24,0,0,0,.022-.282c-.045-.076-.123-.233-.034-.3s.2-.034.328-.067A.882.882,0,0,1,31.6,23.2c.147.011.26,0,.18.19s-.327.279-.349.415,0,.3.259.29.248-.145.485-.18a1.055,1.055,0,0,0,.508-.187" transform="translate(-17512.105 -23810.715)"/><path class="b" d="M20.63,37.624v4.767L22.5,44.265l2.158-2.141V37.587L22.7,35.769Zm2.62,4.5H21.984V37.765H23.25Z" transform="translate(-17510.525 -23813.846)"/><path class="b" d="M26.928,37.624v6.641h1.354l0-1.632,1.284,1.222,1.393-1.234V37.587l-1.963-1.818Zm2.622,4.518H28.282l0-4.376h1.261Z" transform="translate(-17511.906 -23813.846)"/><path class="b" d="M4.867,31.642S6.025,33.485,6.8,34.491a9.908,9.908,0,0,0,2.118,2.093L8.915,38.2a21.947,21.947,0,0,1-2.92-2.724,24.348,24.348,0,0,1-1.684-2.344s.153-.6.26-.87c.241-.608.3-.625.3-.625" transform="translate(-17506.947 -23812.941)"/><path class="b" d="M8.488,4.7A19.229,19.229,0,0,0,6.121,7a14.838,14.838,0,0,0-1.67,2.4,17.827,17.827,0,0,0-1.446,3.377,18.168,18.168,0,0,0-.61,3.021,17.58,17.58,0,0,0,0,2.877A15.118,15.118,0,0,0,2.9,21.473a5.716,5.716,0,0,0-.429.5,5.9,5.9,0,0,0-.485.773,15.085,15.085,0,0,1-.678-2.529,19.126,19.126,0,0,1-.247-3.045c.034-.749.094-1.9.2-2.55a25.64,25.64,0,0,1,1.151-3.981,28.326,28.326,0,0,1,1.637-3C4.36,7.221,5.7,5.532,6.132,5.118A20.445,20.445,0,0,1,9.576,2.444,18.278,18.278,0,0,1,14.3.521,16.2,16.2,0,0,1,18.255.005a17.793,17.793,0,0,1,5.284.817,17.191,17.191,0,0,1,4.876,2.482,20.326,20.326,0,0,1,3.951,4.016,21.7,21.7,0,0,1,1.941,3.636A17.728,17.728,0,0,1,35.348,15.2a19.908,19.908,0,0,1-.17,4.981A17.957,17.957,0,0,1,33.924,24.2a17.694,17.694,0,0,1-3.364,4.923l-.948-.838a16.475,16.475,0,0,0,2.89-4.106,15.268,15.268,0,0,0,1.468-4.419,17.875,17.875,0,0,0,0-5.168,16.187,16.187,0,0,0-2.055-5.64,16.533,16.533,0,0,0-7.2-6.353A15.944,15.944,0,0,0,17.94,1.28a10.484,10.484,0,0,0-2.437.269A13.106,13.106,0,0,0,11.634,2.8,14.579,14.579,0,0,0,8.488,4.7" transform="translate(-17506.232 -23806)"/></g></svg>