<?xml version="1.0" standalone="no"?><!DOCTYPE svg PUBLIC "-//W3C//DTD SVG 1.1//EN" "http://www.w3.org/Graphics/SVG/1.1/DTD/svg11.dtd"><svg t="1671694318277" class="icon" viewBox="0 0 1024 1024" version="1.1" xmlns="http://www.w3.org/2000/svg" p-id="4503" xmlns:xlink="http://www.w3.org/1999/xlink" width="38" height="38"><path d="M512 0C229.216 0 0 229.216 0 512s229.216 512 512 512 512-229.216 512-512S794.784 0 512 0z m0 960c-62.944 0-122.88-13.024-177.216-36.448l233.152-262.304a31.936 31.936 0 0 0 8.096-21.248v-96a32 32 0 0 0-32-32c-112.992 0-232.192-117.472-233.376-118.624A32 32 0 0 0 288.032 384h-128a32 32 0 0 0-32 32v192c0 12.128 6.848 23.2 17.696 28.608l110.304 55.168v187.872c-116.064-80.96-192-215.424-192-367.648 0-68.704 15.488-133.792 43.136-192h116.864c8.48 0 16.64-3.36 22.624-9.376l128-128A32 32 0 0 0 384.032 160V82.592a448.416 448.416 0 0 1 128-18.592c70.4 0 136.992 16.256 196.288 45.184A190.752 190.752 0 0 0 640.064 256c0 51.296 19.968 99.488 56.224 135.776a191.52 191.52 0 0 0 145.152 56.032c13.824 51.808 38.752 186.656-8.416 372.32a29.952 29.952 0 0 0-0.832 5.216A446.592 446.592 0 0 1 512.064 960z" p-id="4504"></path></svg>