<svg xmlns="http://www.w3.org/2000/svg" width="17.08" height="17.08" viewBox="0 0 17.08 17.08">
  <path id="路径_778" data-name="路径 778" d="M43.443,48.878a.734.734,0,0,0,.776-.776V44.219H48.1a.776.776,0,1,0,0-1.553H43.443a.734.734,0,0,0-.776.776V48.1A.734.734,0,0,0,43.443,48.878Zm15.528,4.658a.733.733,0,0,0-.776.776v3.882H54.312a.776.776,0,1,0,0,1.553h4.658a.734.734,0,0,0,.776-.776V54.312a.734.734,0,0,0-.776-.776Zm.7-10.4a.936.936,0,0,0-.388-.388.467.467,0,0,0-.311-.078H54.312a.776.776,0,0,0,0,1.553h2.795l-4.115,4.115a.751.751,0,0,0,0,1.087.75.75,0,0,0,1.087,0l4.115-4.115V48.1a.776.776,0,1,0,1.553,0V43.443A.467.467,0,0,0,59.669,43.132Zm-11.335,9.86-4.115,4.115V54.312a.776.776,0,0,0-1.553,0v4.658a.467.467,0,0,0,.078.311.935.935,0,0,0,.388.388.467.467,0,0,0,.311.078H48.1a.776.776,0,0,0,0-1.553H45.306l4.115-4.115a.769.769,0,0,0-1.087-1.087Z" transform="translate(-42.667 -42.667)" fill="#18191b"/>
</svg>
