<svg xmlns="http://www.w3.org/2000/svg" width="39.913" height="48.122" viewBox="0 0 39.913 48.122">
  <g id="组_8123" data-name="组 8123" transform="translate(9864 -14837.559)">
    <path id="路径_2825" data-name="路径 2825" d="M136.7,6.113l-.13-.13A20.161,20.161,0,0,0,122.17,0a19.459,19.459,0,0,0-13.917,5.853l-.13.26A20.6,20.6,0,0,0,102.4,20.42a20.1,20.1,0,0,0,5.981,14.008l.13.13,13.966,13.564,13.581-13.253.13-.13a20.726,20.726,0,0,0,6.126-14.319A20.509,20.509,0,0,0,136.7,6.113Z" transform="translate(-9966.4 14837.559)" fill="#4cc743"/>
    <g id="组_8122" data-name="组 8122" transform="translate(-9929.146 14779.889)">
      <path id="路径_2821" data-name="路径 2821" d="M416.74,66.724m-2.724,0A2.724,2.724,0,1,0,416.74,64,2.724,2.724,0,0,0,414.016,66.724Z" transform="translate(-331.763)" fill="#fff"/>
      <path id="路径_2822" data-name="路径 2822" d="M350.837,292.864h-3.544A4.5,4.5,0,0,0,344.256,294v7.025h2.664l.573,8.251h3.258l.554-8.251h2.7v-6.893A4.472,4.472,0,0,0,350.837,292.864Z" transform="translate(-264.031 -222.211)" fill="#fff"/>
      <path id="路径_2823" data-name="路径 2823" d="M89.237,685.189v1.436c3.02.446,5.094,1.373,5.094,2.443,0,1.513-4.132,2.735-9.228,2.735s-9.23-1.222-9.23-2.735c0-1.073,2.089-2,5.129-2.45v-1.434c-5.047.547-8.683,2.078-8.683,3.885,0,2.266,5.723,4.1,12.781,4.1s12.783-1.838,12.783-4.1C97.885,687.268,94.266,685.742,89.237,685.189Z" transform="translate(0 -603.126)" fill="#fff"/>
    </g>
  </g>
</svg>
