<svg 
 xmlns="http://www.w3.org/2000/svg"
 xmlns:xlink="http://www.w3.org/1999/xlink"
 width="31px" height="25px">
<path fill-rule="evenodd"  fill="rgb(244, 234, 42)"
 d="M30.951,15.022 C30.951,14.254 30.182,13.485 29.413,13.485 C28.490,13.485 27.875,14.254 27.875,15.022 C27.875,16.099 27.568,19.175 26.184,20.713 C25.415,21.481 24.492,21.789 23.262,21.789 C21.109,21.789 19.571,15.945 18.341,11.793 C16.803,5.796 15.265,0.260 11.267,0.260 C5.577,0.260 2.963,9.025 1.271,14.715 C0.964,15.945 0.656,17.022 0.349,17.637 C0.041,18.406 0.502,19.328 1.271,19.636 C2.040,19.944 2.963,19.482 3.271,18.713 C3.578,17.944 3.886,16.868 4.347,15.484 C5.424,11.332 7.884,3.335 11.267,3.335 C12.958,3.335 14.496,8.871 15.573,12.562 C17.264,18.559 18.956,24.864 23.416,24.864 C25.415,24.864 27.106,24.249 28.337,22.865 C31.105,19.944 30.951,15.176 30.951,15.022 L30.951,15.022 Z"/>
</svg>
