<svg 
 xmlns="http://www.w3.org/2000/svg"
 xmlns:xlink="http://www.w3.org/1999/xlink"
 width="31px" height="28px">
<path fill-rule="evenodd"  fill="rgb(244, 234, 42)"
 d="M21.307,19.805 L8.636,19.805 L6.896,23.620 C6.634,24.169 6.504,24.602 6.504,24.918 C6.504,25.524 6.660,25.942 7.580,26.176 L7.580,27.195 L0.190,27.195 L0.190,26.176 C0.739,26.066 1.646,25.874 1.934,25.599 C2.223,25.324 2.553,24.788 2.924,23.991 L12.221,3.419 C12.550,2.732 12.715,3.237 12.715,2.825 C12.715,2.192 12.601,2.134 11.804,1.860 L11.804,0.804 L19.195,0.804 L19.195,1.860 C18.384,2.093 18.172,2.103 18.172,2.680 C18.172,3.079 18.303,2.477 18.563,2.986 L28.232,23.620 C28.686,24.541 29.084,25.169 29.427,25.506 C29.771,25.844 30.232,26.066 30.809,26.176 L30.809,27.195 L22.363,27.195 L22.363,26.176 C23.270,26.025 23.929,25.599 23.929,24.899 C23.929,24.610 23.792,24.183 23.518,23.620 L21.307,19.805 ZM20.251,16.639 L15.412,5.786 L10.748,16.639 L20.251,16.639 Z"/>
</svg>
